<svg width="45" height="53" viewBox="0 0 45 53" fill="none" xmlns="http://www.w3.org/2000/svg">
<path d="M18.636 0.0892067C17.3625 0.214527 15.0702 0.628082 14.0393 0.903786C13.639 1.00404 12.8506 1.3424 12.2806 1.64317C9.64867 2.99662 8.50858 4.53806 7.90214 7.52067C7.68383 8.53576 7.65957 9.21248 7.65957 13.7867C7.65957 18.3358 7.63531 18.9373 7.46551 19.1378C7.30784 19.3258 7.29571 19.4386 7.40487 19.7519C7.5019 20.0401 7.48977 20.2406 7.38061 20.5038L7.23507 20.8547L5.20958 19.8145C2.27444 18.3107 1.03731 18.0726 0.24895 18.8872C-0.236197 19.3884 0.0185053 20.8672 0.746226 21.6818C1.35266 22.3585 2.12889 22.747 4.02097 23.3235C4.85785 23.5867 5.97368 24.0002 6.50735 24.2634C7.45338 24.7145 9.55164 25.3035 11.662 25.692C18.4905 26.9703 25.5251 26.9703 33.2511 25.692C36.0528 25.2283 39.376 24.5266 40.4676 24.1757C42.9419 23.3736 44.1669 22.2708 44.1669 20.8422C44.1669 20.1529 43.7545 19.7143 42.9176 19.4887C42.1778 19.3007 41.3045 19.5138 39.3639 20.3785C38.5877 20.7294 37.8842 21.0051 37.7993 21.0051C37.7144 21.0051 37.5204 20.7043 37.3627 20.3409C37.0716 19.6892 37.0716 19.6642 36.9988 13.6739C36.9139 7.08205 36.9018 6.86901 36.1498 5.23985C35.6404 4.13703 34.5488 3.04675 33.3117 2.37003C31.9412 1.64317 29.0667 0.828592 26.0345 0.314783C24.3365 0.0265465 20.3219 -0.098772 18.636 0.0892067Z" fill="#BEBBBA"/>
<path d="M31.0435 26.7321L30.7039 26.7822V30.1032V33.4116H31.4801H32.2563L32.3048 32.0331C32.3412 30.4917 32.4868 30.1784 33.0568 30.3288C33.5541 30.4541 33.736 30.993 33.736 32.2837V33.4116H34.4637H35.1915V31.9579C35.1915 30.4415 35.1308 30.2034 34.5972 29.6144C33.9786 28.9126 33.2751 28.7247 32.6202 29.0756L32.2806 29.2635V28.6119C32.2806 28.2484 32.2442 27.6594 32.2078 27.296C32.1229 26.6569 32.1108 26.6444 31.7469 26.6569C31.5407 26.6694 31.2254 26.707 31.0435 26.7321Z" fill="#BEBBBA"/>
<path d="M23.5725 26.9697C23.3784 27.1076 23.3057 27.283 23.3057 27.6465C23.3057 28.461 24.0455 28.7869 24.6883 28.2605C24.8945 28.0976 25.0037 27.8846 25.0037 27.6465C25.0037 27.4084 24.8945 27.1953 24.6883 27.0324C24.3002 26.7191 23.9485 26.694 23.5725 26.9697Z" fill="#BEBBBA"/>
<path d="M5.88861 27.2581C4.89406 27.5213 4.38465 28.173 4.38465 29.1881C4.38465 30.1656 4.82129 30.5165 6.38588 30.7796C7.27128 30.93 7.65939 31.1681 7.65939 31.5441C7.65939 31.8323 7.30766 32.0328 6.774 32.0328C6.33737 32.0328 6.02202 31.7697 5.93712 31.3436C5.90074 31.1305 5.79158 31.0929 5.0396 31.0553L4.17847 31.0177L4.26337 31.5942C4.43317 32.7471 5.27005 33.3988 6.72549 33.4865C7.87771 33.5617 8.69033 33.2735 9.09058 32.6594C9.33315 32.296 9.36954 32.108 9.33315 31.494C9.28464 30.8924 9.22399 30.7044 8.92078 30.3911C8.61756 30.0778 8.38712 29.9901 7.48959 29.8397C6.5193 29.6768 5.96138 29.4262 5.96138 29.1379C5.96138 28.9124 6.37376 28.6492 6.73762 28.6492C7.17425 28.6492 7.41682 28.8372 7.41682 29.1755C7.41682 29.3635 7.52598 29.4011 8.14454 29.4011C8.848 29.4011 8.87226 29.3886 8.87226 29.0627C8.87226 28.5489 8.43563 27.7344 8.01113 27.4712C7.59875 27.2205 6.47079 27.1078 5.88861 27.2581Z" fill="#BEBBBA"/>
<path d="M10.5707 28.3362C10.5707 28.9753 10.5465 29.0254 10.2796 29.0254C9.98856 29.0254 9.84302 29.2886 9.84302 29.8651C9.84302 30.0907 9.91579 30.1533 10.1826 30.1533H10.5101L10.4737 31.1809C10.4495 32.0457 10.4737 32.2838 10.6799 32.6221C10.9952 33.1359 11.4683 33.3866 12.3173 33.4868L12.9965 33.5746V32.8602C12.9965 32.2086 12.9722 32.1584 12.7175 32.1584C12.2688 32.1584 12.1475 31.9203 12.1475 31.0055V30.1533H12.5113C12.8631 30.1533 12.8752 30.1283 12.8752 29.6019C12.8752 29.0881 12.8509 29.038 12.5477 29.0004C12.2324 28.9628 12.2081 28.9127 12.1717 28.2986L12.1353 27.6469H11.347H10.5707V28.3362Z" fill="#BEBBBA"/>
<path d="M36.2829 28.3362C36.2829 28.9753 36.2586 29.0254 35.9918 29.0254C35.7007 29.0254 35.5552 29.2886 35.5552 29.8651C35.5552 30.0907 35.6279 30.1533 35.8948 30.1533H36.2223L36.1859 31.1809C36.1616 32.0457 36.1859 32.2838 36.3921 32.6221C36.7074 33.1359 37.1804 33.3866 38.0294 33.4868L38.7086 33.5746V32.8602C38.7086 32.2086 38.6844 32.1584 38.4297 32.1584C37.9809 32.1584 37.8596 31.9203 37.8596 31.0055V30.1533H38.2235C38.5752 30.1533 38.5873 30.1283 38.5873 29.6019C38.5873 29.0881 38.5631 29.038 38.2599 29.0004C37.9445 28.9628 37.9203 28.9127 37.8839 28.2986L37.8475 27.6469H37.0591H36.2829V28.3362Z" fill="#BEBBBA"/>
<path d="M13.8815 28.9878C13.6025 29.038 13.6025 29.063 13.6025 31.2311V33.4116H14.3909H15.1793V32.0582C15.1793 30.8927 15.2157 30.6671 15.3976 30.4917C15.6765 30.2285 15.7736 30.2285 16.0161 30.4666C16.1738 30.6045 16.3194 30.617 16.756 30.5042C17.4958 30.3162 17.5565 30.241 17.2654 29.7523C16.853 29.063 16.1496 28.7873 15.4946 29.0756C15.1186 29.2385 15.058 29.2385 15.058 29.0756C15.058 28.9001 14.5243 28.8625 13.8815 28.9878Z" fill="#BEBBBA"/>
<path d="M19.121 29.201C17.6777 29.8652 17.4108 31.7826 18.6116 32.8729C19.1695 33.3867 19.8002 33.512 20.4794 33.2614C20.9039 33.0984 21.0131 33.0984 21.1465 33.2363C21.2556 33.3616 21.4861 33.3867 21.947 33.324L22.5777 33.2488V31.2061C22.5777 29.2887 22.5655 29.1509 22.3472 29.1509C22.2259 29.1509 21.8742 29.1133 21.5589 29.0757C21.098 29.0005 21.0009 29.0256 21.0009 29.1885C21.0009 29.3639 20.9524 29.3639 20.5764 29.201C20.067 28.988 19.594 28.988 19.121 29.201ZM20.7462 30.7299C21.0494 31.1309 21.0616 31.3816 20.8069 31.7575C20.4188 32.334 19.4242 31.933 19.4242 31.1936C19.4242 30.4291 20.2853 30.1284 20.7462 30.7299Z" fill="#BEBBBA"/>
<path d="M27.0047 29.1131C26.6166 29.2134 25.9859 29.7522 25.7797 30.1909C25.6705 30.4039 25.5735 30.8676 25.5735 31.2185C25.5735 31.5694 25.6705 32.0331 25.7797 32.2461C26.2284 33.1609 27.3443 33.6121 28.1933 33.2361L28.642 33.0482V33.4241C28.642 33.8251 28.448 34.2888 28.2297 34.4392C28.0113 34.6021 27.3321 34.552 26.8591 34.3515C26.6287 34.2512 26.4104 34.1635 26.3982 34.1635C26.3861 34.1635 26.3012 34.4267 26.2163 34.7525C26.0829 35.3039 26.095 35.3666 26.3376 35.5671C26.6893 35.8553 27.8415 36.0809 28.5086 35.9932C29.6608 35.8303 30.049 35.2037 30.2188 33.2111C30.2915 32.4592 30.3037 31.2436 30.2552 30.4916C30.1945 29.3387 30.1581 29.1507 29.9762 29.1507C29.8549 29.1507 29.5153 29.1131 29.2 29.0755C28.7391 29.0003 28.642 29.0254 28.642 29.1883C28.642 29.3638 28.5935 29.3638 28.2175 29.2008C27.8052 29.0254 27.4656 29.0003 27.0047 29.1131ZM28.3995 30.6545C28.8846 31.1558 28.5814 32.0331 27.9022 32.0331C27.5383 32.0331 27.0653 31.5443 27.0653 31.1684C27.0653 30.4916 27.9143 30.1533 28.3995 30.6545Z" fill="#BEBBBA"/>
<path d="M23.3057 31.2812V33.4116H24.094H24.8824V31.2812V29.1508H24.094H23.3057V31.2812Z" fill="#BEBBBA"/>
<path d="M13.154 35.3788L12.875 35.4289V38.7499V42.0583H13.6634H14.4517V40.7675C14.4517 39.8026 14.5002 39.4141 14.6458 39.201C14.8884 38.8501 15.1916 38.8501 15.5191 39.2136C15.7616 39.4767 15.7859 39.6396 15.7859 40.7801V42.0583H16.5742H17.3626V40.7049C17.3626 39.6647 17.302 39.2512 17.1322 38.8627C16.647 37.7724 15.6282 37.2711 14.7913 37.7223C14.6094 37.8225 14.4396 37.8726 14.4032 37.8225C14.3668 37.7849 14.3304 37.1959 14.3304 36.5192V35.2911L13.8817 35.3036C13.627 35.3161 13.2995 35.3537 13.154 35.3788Z" fill="#BEBBBA"/>
<path d="M18.1631 35.6798C17.7386 36.0307 17.7386 36.557 18.1631 36.9079C18.7938 37.4217 19.5822 37.0708 19.5822 36.2938C19.5822 35.5169 18.7938 35.166 18.1631 35.6798Z" fill="#BEBBBA"/>
<path d="M4.14233 35.8549C4.14233 35.88 4.42129 37.2836 4.74877 38.9503C5.08837 40.6171 5.3552 42.0081 5.3552 42.0207C5.3552 42.0457 5.88886 42.0583 6.55594 42.0583H7.75668L7.90222 41.2061C8.16905 39.7774 8.20544 39.7524 8.47227 40.9304L8.71484 41.9956L9.97622 42.0332L11.2376 42.0708L11.7591 39.0882C12.0381 37.4465 12.2685 36.0304 12.2685 35.9427C12.2685 35.8299 11.9775 35.7923 11.2012 35.7923H10.1339L9.91558 37.1958C9.55172 39.4265 9.56385 39.4265 9.17573 37.5718L8.83613 35.9051L8.21757 35.9427L7.59901 35.9802L7.29579 37.4465C7.12599 38.2485 6.95619 38.9378 6.9198 38.9754C6.88341 39.0255 6.68936 38.3237 6.4953 37.4214L6.14356 35.7923H5.14901C4.59109 35.7923 4.14233 35.8173 4.14233 35.8549Z" fill="#BEBBBA"/>
<path d="M24.5547 37.6972C24.6032 38.7373 24.6396 40.1409 24.6396 40.8302V42.0583H25.4765H26.3255L26.3619 41.3941L26.3983 40.7425L26.8106 41.3315L27.223 41.933H28.2661H29.297L28.7512 41.3315C28.4601 41.0056 28.0599 40.567 27.8658 40.3414L27.5262 39.9529L28.3874 38.8376L29.2485 37.7348L28.3389 37.6345L27.4171 37.5468L27.1017 37.9228C26.9319 38.1358 26.6894 38.4366 26.5681 38.587C26.3497 38.8627 26.3497 38.8376 26.3376 37.3212V35.7923H25.4037H24.4819L24.5547 37.6972Z" fill="#BEBBBA"/>
<path d="M31.2012 37.6847C30.3037 38.0607 29.7336 38.9003 29.7336 39.8653C29.7336 41.5571 31.4559 42.6724 32.8871 41.908C33.3965 41.6323 34.2334 40.6423 34.0757 40.4919C34.0393 40.4543 33.7361 40.3916 33.3844 40.3415C32.8143 40.2788 32.7416 40.2914 32.5111 40.6047C32.2079 41.0057 31.7591 41.0308 31.5044 40.6548C31.3953 40.5044 31.3104 40.3415 31.3104 40.2914C31.3104 40.2538 31.6742 40.1786 32.1351 40.1284C34.0393 39.9405 34.1 39.9154 34.1 39.6021C34.1 38.2737 32.4383 37.1709 31.2012 37.6847ZM32.3777 39.1384C32.4019 39.2512 32.2685 39.3013 31.9168 39.3013C31.468 39.3013 31.4195 39.2763 31.5529 39.1008C31.7349 38.8878 32.2928 38.9128 32.3777 39.1384Z" fill="#BEBBBA"/>
<path d="M21.0615 37.9106C20.5278 38.1487 20.2731 38.5748 20.2731 39.1888C20.2731 39.7778 20.6976 40.1287 21.5588 40.229C22.3957 40.3292 22.6382 40.4545 22.5412 40.7303C22.432 41.031 21.765 40.9934 21.583 40.6801C21.4618 40.4796 21.292 40.4295 20.7947 40.4295C20.2246 40.4295 20.1519 40.4545 20.1519 40.6801C20.1519 41.1187 20.4915 41.6702 20.8917 41.8832C21.0979 41.9834 21.5588 42.1088 21.9226 42.1464C23.4509 42.3093 24.4211 41.3193 23.8511 40.1788C23.657 39.7778 23.5236 39.7277 22.5048 39.5522C21.765 39.4269 21.5224 39.2891 21.6558 39.0635C21.765 38.8881 22.4563 38.8755 22.4563 39.051C22.4563 39.1136 22.7353 39.1763 23.0627 39.1763C23.7419 39.1763 23.8026 39.0635 23.4751 38.4118C23.1234 37.6975 21.9954 37.4719 21.0615 37.9106Z" fill="#BEBBBA"/>
<path d="M37.2052 38.6373C37.0839 39.1762 36.9505 39.69 36.902 39.7652C36.8535 39.8529 36.6716 39.5145 36.4775 38.9882L36.1258 38.0483H35.2283H34.3186L35.2646 39.8905L36.1985 41.7452L35.9924 42.7603C35.8832 43.3243 35.7983 43.8506 35.7983 43.9258C35.7983 44.026 36.053 44.0636 36.5988 44.0386L37.4114 44.001L38.1634 41.1813C38.5758 39.6273 38.9518 38.2112 38.9881 38.0107L39.073 37.6723H38.2483H37.4235L37.2052 38.6373Z" fill="#BEBBBA"/>
<path d="M17.8474 39.9279V42.0583H18.6964H19.5454V39.9279V37.7974H18.6964H17.8474V39.9279Z" fill="#BEBBBA"/>
<path d="M24.943 43.5498C24.094 43.8631 23.3663 44.3644 22.6871 45.0912L22.1049 45.7178L21.3408 45.016C20.9284 44.6276 20.225 44.1263 19.7883 43.9007C19.0242 43.5122 18.9636 43.4997 17.4232 43.4997C15.895 43.4997 15.8101 43.5122 14.9005 43.9258C14.3668 44.1513 13.2874 44.8406 12.4626 45.4421C10.7525 46.7204 9.72153 47.3219 8.66633 47.6854C7.74455 48.0112 6.36189 48.0363 5.79184 47.7605C5.33095 47.535 4.66387 46.8457 4.62749 46.57C4.48194 45.4923 5.11263 45.1915 6.51956 45.6552C7.22302 45.8808 7.53837 45.768 7.53837 45.3043C7.53837 44.9158 6.73787 44.1137 6.05867 43.813C4.94283 43.3117 3.83912 43.6375 2.79606 44.7779C1.94705 45.6928 1.83789 45.9183 1.83789 46.6953C1.83789 48.8007 3.09927 50.5928 5.40372 51.7457C7.25941 52.6856 8.78762 52.9613 11.9896 52.9613C14.5366 52.9488 15.5069 52.8109 17.2413 52.2219C18.9151 51.6455 20.0066 50.9437 21.074 49.8033C21.5712 49.2644 22.02 48.8258 22.0806 48.8258C22.1413 48.8258 22.4445 49.1391 22.7599 49.5276C24.1547 51.2068 26.1801 52.2595 29.0425 52.7859C31.3348 53.212 35.5192 52.9738 37.4113 52.3222C40.1766 51.3698 42.0808 49.327 42.2991 47.1214C42.3962 46.1815 42.2142 45.7429 41.4016 44.8907C40.4192 43.8506 39.9947 43.625 39.085 43.6375C38.2118 43.6375 37.763 43.8255 37.0717 44.4521C36.7442 44.7529 36.6472 44.9409 36.6472 45.2667C36.6472 45.8181 36.8291 45.8933 37.666 45.6426C38.4665 45.392 39.1214 45.392 39.3034 45.605C39.5823 45.9685 39.5823 46.4948 39.2912 46.9334C38.8667 47.5976 38.1026 47.9485 37.1323 47.9485C35.6405 47.9485 34.1608 47.2843 31.917 45.6176C30.4616 44.5273 29.0668 43.7628 28.0722 43.4997C27.1262 43.249 25.695 43.2616 24.943 43.5498Z" fill="#BEBBBA"/>
</svg>
