<svg xmlns="http://www.w3.org/2000/svg" version="1.0" width="64.000000pt" height="64.000000pt" viewBox="0 0 64.000000 64.000000" preserveAspectRatio="xMidYMid meet">

<g transform="translate(0.000000,64.000000) scale(0.100000,-0.100000)" fill="#bebbba" stroke="none">
<path d="M145 504 c-33 -23 -60 -48 -60 -54 0 -6 28 -32 63 -56 l62 -45 0 30 0 31 100 0 c145 0 190 -30 190 -126 0 -39 -5 -51 -33 -79 -20 -20 -48 -36 -70 -40 -33 -6 -37 -11 -37 -36 0 -26 4 -29 30 -29 100 0 180 84 180 190 0 65 -18 108 -63 147 -47 41 -91 53 -204 53 l-92 0 -3 28 -3 28 -60 -42z" fill="#bebbba"/>
<path d="M90 130 c0 -25 4 -30 25 -30 21 0 25 5 25 30 0 25 -4 30 -25 30 -21 0 -25 -5 -25 -30z" fill="#bebbba"/>
<path d="M170 130 c0 -27 3 -30 30 -30 27 0 30 3 30 30 0 27 -3 30 -30 30 -27 0 -30 -3 -30 -30z" fill="#bebbba"/>
<path d="M260 130 c0 -28 3 -30 35 -30 32 0 35 2 35 30 0 28 -3 30 -35 30 -32 0 -35 -2 -35 -30z" fill="#bebbba"/>
</g>
</svg>