<svg width="50" height="50" viewBox="0 0 50 50" fill="none" xmlns="http://www.w3.org/2000/svg">
<g clip-path="url(#clip0_1_356)">
<path d="M23.1445 0.0683212C19.5215 0.410118 16.7676 1.1816 13.7598 2.69527C11.3672 3.88668 9.42384 5.31246 7.36329 7.36324C5.17579 9.56051 3.78907 11.4941 2.48048 14.2089C0.937512 17.3925 0.166028 20.5566 0.0293089 24.1699C-0.117175 28.33 0.7422 32.2949 2.59767 36.0253C3.8965 38.6523 5.24415 40.5078 7.36329 42.6367C9.5215 44.7851 11.3867 46.123 14.0137 47.4121C15.8496 48.3105 17.0313 48.75 18.8965 49.2187C23.7793 50.4492 28.6817 50.2148 33.4473 48.5253C34.9024 48.0078 37.4219 46.748 38.7207 45.8789C41.6406 43.9355 44.3164 41.1914 46.2305 38.1836C46.9336 37.08 48.0664 34.7363 48.5254 33.4375C50.8203 26.9726 50.4199 20.039 47.4024 13.9746C46.1914 11.5332 44.834 9.60934 42.9297 7.64645C40.8399 5.47848 38.7305 3.94527 35.9863 2.58785C33.0957 1.16207 30.4004 0.390587 27.1973 0.0976181C26.2012 0.00972748 23.9453 -0.00980377 23.1445 0.0683212ZM28.4668 3.40816C34.6582 4.45309 39.9024 7.87105 43.3399 13.125C45 15.6445 46.1328 18.623 46.6504 21.8261C46.8848 23.3203 46.8848 26.6796 46.6504 28.1738C46.3184 30.1855 45.6934 32.2851 44.8731 34.1308C44.5215 34.9121 43.4375 36.8261 43.3789 36.7675C43.3496 36.7382 43.2227 36.3086 43.0957 35.8203C41.9141 31.25 38.6524 26.9336 34.5801 24.5312C34.0625 24.2285 33.6328 23.9746 33.6133 23.9648C33.5938 23.955 33.7793 23.6718 34.0137 23.33C37.7051 18.0273 35.8496 10.5371 30.0977 7.53902C28.8965 6.91402 27.8906 6.57223 26.6895 6.39645C21.9141 5.67379 17.3731 8.04683 15.1953 12.373C13.457 15.8496 13.7695 20.1367 15.9863 23.33C16.2207 23.6718 16.4063 23.955 16.3867 23.9648C16.3672 23.9746 15.9375 24.2285 15.4199 24.5312C11.3672 26.9238 8.19337 31.0839 6.97267 35.5957C6.83595 36.1328 6.69923 36.6406 6.66993 36.7187C6.57228 37.041 5.15626 34.3652 4.50197 32.5976C4.04298 31.3769 3.60353 29.6777 3.34962 28.1738C3.10548 26.6894 3.10548 23.3398 3.34962 21.8261C4.37501 15.5078 7.71486 10.2734 12.9492 6.77731C15.9375 4.77535 19.541 3.52535 23.2422 3.18356C24.2969 3.0859 27.3242 3.22262 28.4668 3.40816ZM26.8555 9.59957C28.877 10.1562 30.4492 11.2793 31.5527 12.9687C32.4121 14.2773 32.7637 15.4882 32.7637 17.1875C32.7637 19.3945 32.0313 21.1718 30.5078 22.6953C28.9844 24.2187 27.207 24.9511 25 24.9511C22.793 24.9511 21.0156 24.2187 19.4922 22.6953C17.9688 21.1718 17.2363 19.3945 17.2363 17.1875C17.2363 15.4785 17.5879 14.2871 18.457 12.9492C19.6094 11.1816 21.4063 9.97066 23.5352 9.51168C24.3164 9.34566 26.0938 9.39449 26.8555 9.59957ZM20.1172 26.9238C23.3594 28.5351 26.6797 28.5351 29.9219 26.9043L31.1914 26.2695L31.9043 26.6211C34.1602 27.705 36.4746 29.7461 37.9395 31.9336C39.4043 34.1211 40.2539 36.5039 40.5469 39.2187L40.6543 40.2441L40.3223 40.5957C39.707 41.2402 38.1348 42.5 37.0606 43.2128C34.4336 44.9609 31.4551 46.1132 28.1738 46.6503C26.6699 46.8847 23.3203 46.8847 21.8262 46.6503C17.3438 45.9179 13.3203 43.9746 10.1172 40.9961L9.34572 40.2832L9.45314 39.2382C9.67775 37.1582 10.166 35.4199 11.0156 33.7207C12.2559 31.2597 13.9942 29.2578 16.2012 27.7441C17.0215 27.1875 18.7402 26.2402 18.8477 26.289C18.877 26.3086 19.4434 26.5918 20.1172 26.9238Z" fill="#BEBBBA"/>
</g>
<defs>
<clipPath id="clip0_1_356">
<rect width="50" height="50" fill="white"/>
</clipPath>
</defs>
</svg>
